<?xml version="1.0" encoding="UTF-8"?>
<svg width="256" height="256" viewBox="0 0 256 256" xmlns="http://www.w3.org/2000/svg">
  <defs>
    <linearGradient id="g1" x1="0%" y1="0%" x2="100%" y2="100%">
      <stop offset="0%" style="stop-color:#00D9FF;stop-opacity:1" />
      <stop offset="100%" style="stop-color:#0066FF;stop-opacity:1" />
    </linearGradient>
    <linearGradient id="g2" x1="0%" y1="100%" x2="100%" y2="0%">
      <stop offset="0%" style="stop-color:#FF0099;stop-opacity:1" />
      <stop offset="100%" style="stop-color:#FF6600;stop-opacity:1" />
    </linearGradient>
  </defs>
  <rect width="256" height="256" fill="#0f0f1e" rx="32"/>
  <circle cx="128" cy="128" r="105" fill="none" stroke="url(#g1)" stroke-width="4"/>
  <circle cx="128" cy="128" r="75" fill="none" stroke="url(#g2)" stroke-width="3"/>
  <g fill="url(#g1)">
    <circle cx="128" cy="40" r="8"/>
    <circle cx="198" cy="58" r="8"/>
    <circle cx="216" cy="128" r="8"/>
    <circle cx="198" cy="198" r="8"/>
    <circle cx="128" cy="216" r="8"/>
    <circle cx="58" cy="198" r="8"/>
    <circle cx="40" cy="128" r="8"/>
    <circle cx="58" cy="58" r="8"/>
  </g>
  <circle cx="128" cy="128" r="50" fill="url(#g1)" opacity="0.85"/>
  <circle cx="128" cy="128" r="40" fill="#0f0f1e"/>
  <g stroke="url(#g2)" stroke-width="2" fill="none">
    <circle cx="128" cy="128" r="12" fill="url(#g1)"/>
    <path d="M 128 112 L 132 125 L 128 120 L 124 125 Z" fill="url(#g2)"/>
  </g>
</svg>